inDegrees=no
num_controls=7
num_derivatives=13
num_iterations=119
num_multipliers=7
num_parameters=0
num_slacks=7
num_states=26
objective=5.449608
objective_accelerations=0.674069
objective_balance=0.035322
objective_effort=0.353934
objective_height=4.341978
objective_ligament=0.044304
solver_duration=1324.801530
status=Solve_Succeeded
success=true
DataType=double
version=3
OpenSimVersion=4.4-2022-07-23-0e9fedc
endheader
time	/jointset/ground_pelvis/pelvis_tilt/value	/jointset/ground_pelvis/pelvis_tx/value	/jointset/ground_pelvis/pelvis_ty/value	/jointset/hip_l/hip_flexion_l/value	/jointset/hip_l/hip_adduction_l/value	/jointset/hip_l/hip_rotation_l/value	/jointset/back/lumbar_extension/value	/jointset/patellofemoral_l/patellar_flexion_l/value	/jointset/knee_l/knee_flexion_l/value	/jointset/knee_l/knee_adduction_l/value	/jointset/knee_l/knee_rotation_l/value	/jointset/ankle_l/ankle_angle_l/value	/jointset/subtalar_l/subtalar_angle_l/value	/jointset/ground_pelvis/pelvis_tilt/speed	/jointset/ground_pelvis/pelvis_tx/speed	/jointset/ground_pelvis/pelvis_ty/speed	/jointset/hip_l/hip_flexion_l/speed	/jointset/hip_l/hip_adduction_l/speed	/jointset/hip_l/hip_rotation_l/speed	/jointset/back/lumbar_extension/speed	/jointset/patellofemoral_l/patellar_flexion_l/speed	/jointset/knee_l/knee_flexion_l/speed	/jointset/knee_l/knee_adduction_l/speed	/jointset/knee_l/knee_rotation_l/speed	/jointset/ankle_l/ankle_angle_l/speed	/jointset/subtalar_l/subtalar_angle_l/speed	/forceset/tau_hip_flexion_l	/forceset/tau_hip_adduction_l	/forceset/tau_hip_rotation_l	/forceset/tau_knee_flexion_l	/forceset/tau_ankle_angle_l	/forceset/tau_subtalar_angle_l	/forceset/tau_lumbar_extension	lambda_cid13_p0	lambda_cid13_p1	lambda_cid13_p2	lambda_cid13_p3	lambda_cid13_p4	lambda_cid13_p5	lambda_cid14_p0	/jointset/ground_pelvis/pelvis_tilt/accel	/jointset/ground_pelvis/pelvis_tx/accel	/jointset/ground_pelvis/pelvis_ty/accel	/jointset/hip_l/hip_flexion_l/accel	/jointset/hip_l/hip_adduction_l/accel	/jointset/hip_l/hip_rotation_l/accel	/jointset/back/lumbar_extension/accel	/jointset/patellofemoral_l/patellar_flexion_l/accel	/jointset/knee_l/knee_flexion_l/accel	/jointset/knee_l/knee_adduction_l/accel	/jointset/knee_l/knee_rotation_l/accel	/jointset/ankle_l/ankle_angle_l/accel	/jointset/subtalar_l/subtalar_angle_l/accel	gamma_cid13_p0	gamma_cid13_p1	gamma_cid13_p2	gamma_cid13_p3	gamma_cid13_p4	gamma_cid13_p5	gamma_cid14_p0
1.5	-0.4894590968089287	-0.09394817811703093	0.7569360125986742	1.228084184127029	-0.4279720248097591	-0.2580118408678037	-0.2326751837751357	0.6438255445364209	0.6438255445372363	-0.173243954227667	-0.1449761407196027	-0.05577005314841047	-0.1053388643450966	1.014591996353507	0.4454139007401739	0.5365172383883214	-2.74681161024043	0.227895304907149	-0.5680545281433576	0.291954852125517	-1.580656934514528	-1.580656934514366	-0.01474789223792543	0.1434930243378267	0.07138650916207509	0.2771809514155564	-0.2306502397703006	0.01356848979573593	0.001258104053489058	-0.1604556555347676	0.1103130896989229	0.05698118494407595	0.2050924259686902	1.969443355038188	-27.11935957446891	6.303652367727249	-11.4721251631935	-521.5404560546319	-63.53339347568723	-32.38125779390383	0.8607654412215718	0.8972043361151597	-0.4213876525959512	-1.708825366925548	0.5122964096642644	-0.02824949622421334	1.657312506958594	-1.058523014722806	-1.058523014723354	0.08822705493593747	0.311519159946374	-0.02558695205020549	0.5686779611292679	-5.885869638653533e-08	7.688747798159856e-07	8.741892713982624e-08	2.976123011608666e-07	2.211663500894943e-07	-3.399974203786734e-07	1.197243451787701e-07
1.51	-0.479270356891503	-0.08944962085619974	0.7622790123286115	1.200532759821752	-0.4256686007946668	-0.2636945824577412	-0.2296742216197895	0.6279684820163416	0.6279684820164267	-0.1733880065054309	-0.1435277261530413	-0.05505753432478594	-0.1025397907657371	1.023006533994532	0.4542390001911085	0.5319664314404615	-2.763087704306888	0.2327623437523806	-0.568428905372921	0.3082201438732035	-1.590531957833203	-1.590531957832906	-0.01405546479865306	0.1461671879949158	0.07111824034815878	0.282608971948019	-0.2229490356052023	0.01299771050205899	0.001385272350550546	-0.15824767534384	0.106882055911366	0.05535975369191332	0.1990918567901643	1.160060642050319	-26.3244842652132	6.235215259001309	-10.76514774737675	-516.9980454354184	-63.68731929410347	-33.02149675361157	0.8093627742869233	0.8664424842148368	-0.489321326091647	-1.529184316144922	0.4696727647003355	-0.03218118474269346	1.60852224809723	-0.9184741375483744	-0.9184741375278034	0.06098785245303884	0.2419143135521154	-0.02729985885320858	0.5260063685772616	-6.437844227299308e-08	8.027122249167975e-07	9.171411735609831e-08	3.07173190807805e-07	2.313314292314705e-07	-3.271791951233762e-07	1.195669845690223e-07
1.52	-0.4690019586279341	-0.08486455665393208	0.7675730251670295	1.172830137997868	-0.4233173533625813	-0.2693790976896273	-0.2265111295990874	0.612019372833661	0.612019372833014	-0.173524887056093	-0.1420532600808587	-0.05434766879185677	-0.09968720852719844	1.030523665585312	0.4627152890274682	0.5267198600842807	-2.777051113958896	0.2374599883075157	-0.5684092565392913	0.3243808251978398	-1.599066267036227	-1.599066267035793	-0.01331354679817572	0.1487033254504861	0.07085585102260852	0.2878826832513878	-0.215247831440094	0.01242693120844713	0.001512440647248645	-0.1560396951528442	0.1034510221238401	0.05373832243983685	0.1930912876115945	0.3385944135832699	-25.52882104572997	6.16816925708511	-10.0180040388942	-512.606013696677	-63.86579659173672	-33.64688361029533	0.6812842311725014	0.8274422132002385	-0.5605405342601368	-1.246288484035485	0.4784175516449549	0.05055571641433983	1.636390422348676	-0.7903801915925162	-0.7903801915926346	0.09812516717685148	0.2839139196425092	-0.02441105437693154	0.5378161153104796	-6.646506126632079e-08	8.310449635677355e-07	8.564685250322336e-08	3.09702855903679e-07	2.470826929821294e-07	-3.167426796280711e-07	1.200999245922916e-07
1.53	-0.4586628934692989	-0.08019652032951756	0.7728111768285103	1.144999355192451	-0.4209200251294815	-0.275061532478129	-0.2231872356538969	0.595991613725635	0.5959916137254602	-0.1736541950190051	-0.1405541810935526	-0.0536403522466324	-0.09678269395756958	1.037131786363333	0.4708280890412673	0.5208008108838275	-2.788711936418726	0.2419750568040571	-0.5680166925652873	0.340359001785295	-1.606252267468653	-1.606252267468249	-0.0125387514653066	0.1510851496817908	0.07061663028886216	0.2929956146818198	-0.2073424575632549	0.01165555746202875	0.001569282951109327	-0.1541513246929864	0.1006669127642872	0.05187405667819551	0.1868960424209836	-0.2832714783880605	-24.67384494273534	6.104461998305281	-9.410035857247614	-508.2449280544384	-63.87838400410258	-34.25423633503667	0.6269188463386253	0.7936762969754581	-0.62398023626439	-1.066969687674263	0.4332947693834864	0.0428821704650808	1.572686968599604	-0.6477413130873675	-0.6477413130914926	0.06872845494333477	0.2111636533298019	-0.02230325127487806	0.4941973489555405	-6.490398293569792e-08	8.535289516156828e-07	6.856947913937983e-08	3.047618449140468e-07	2.687692778795135e-07	-3.088367307527575e-07	1.213663090381415e-07
1.54	-0.448262478533851	-0.07544926052466333	0.7779868593733228	1.11706376605029	-0.4184784975572814	-0.2807381865403531	-0.2197047288045014	0.5798989883444887	0.5798989883447735	-0.1737754406809436	-0.1390321144681952	-0.05293515304242487	-0.0938278169352272	1.042793620950222	0.4785599851154143	0.5142260367504834	-2.798012381307243	0.2462998561295869	-0.5672531112884126	0.3561034060389835	-1.612039521661867	-1.61203952166149	-0.01170108658838665	0.1533008530513137	0.0704323828190626	0.2979551737940966	-0.1994370836863174	0.01088418371565818	0.001626125254689553	-0.1522629542330729	0.09788280340474864	0.05000979091661404	0.1807007972304336	-0.9168636905993015	-23.81741774957209	6.041211217961415	-8.761707640964172	-504.0232913832256	-63.91520559135196	-34.84037000681415	0.4920269929461148	0.7512614252698796	-0.6916855208382826	-0.7742129697728479	0.4403637174426367	0.1247591769883822	1.589635955595474	-0.5106309437498925	-0.5106309437498896	0.1106990759869165	0.2506897472860631	-0.01341640158745843	0.5071416516794367	-6.752630309497579e-08	8.812386863316448e-07	7.164412338610038e-08	3.044667424235757e-07	2.83862581104477e-07	-2.963342289353489e-07	1.201660878311325e-07
1.55	-0.4378102329057215	-0.07062669661754421	0.7830935782434332	1.089047060902657	-0.4159946916467673	-0.2864055101254663	-0.2160661384300338	0.5637555267338982	0.5637555267338789	-0.1738879778112017	-0.1374888472657161	-0.05223154891242363	-0.09082414669842935	1.04748792040036	0.4858772003963487	0.5070136083746382	-2.804917262246185	0.2504249991391699	-0.5661503118981553	0.3715597043164348	-1.616411597960379	-1.616411597960199	-0.01080245357473449	0.1553225976229699	0.07029449672062671	0.3027465436117832	-0.1915431868469513	0.01001346904518691	0.001657905461446917	-0.1503122817659903	0.09508103477420675	0.04805601717114875	0.1744567150891837	-1.563789210062686	-22.92164651467023	5.973816793048013	-8.059894216922361	-499.8542685316253	-63.87125272223336	-35.40195971116839	0.4329678196745602	0.7106746599594753	-0.7515817256409342	-0.5869406535599755	0.3929587063813424	0.112354187038714	1.515382082989928	-0.364338373843844	-0.364338373873261	0.08021962892194233	0.1733702959419295	-0.01306737247515728	0.4601264557339769	-7.496862586218249e-08	9.149693900346669e-07	9.793739661890436e-08	3.095245345082246e-07	2.913592771851301e-07	-2.785356987281354e-07	1.16123907937134e-07
1.56	-0.4273160770033723	-0.06573321594152431	0.7881250607838505	1.060973643946111	-0.4134707604834384	-0.2920599429432673	-0.2122746340089582	0.5475755758801034	0.547575575879818	-0.1739913737682258	-0.1359262719208584	-0.05152914217510927	-0.0877735644016705	1.051175675795585	0.4927433388955735	0.4991787708116732	-2.809354743089303	0.2543249066953731	-0.564674957828131	0.3866862153606902	-1.61933737029657	-1.619337370296586	-0.009872851966393717	0.1571624815480988	0.07019290428205398	0.3073375857863016	-0.1836492900075564	0.009142754374710085	0.001689685668725543	-0.1483616092989742	0.09227926614365389	0.04610224342566685	0.1682126329479598	-2.223295889474169	-22.02420954943198	5.906770437999138	-7.312011216189997	-495.8304909800888	-63.85107353657278	-35.93573567673224	0.290718181963717	0.6610460689280637	-0.8161673582622282	-0.2807329506081029	0.3953166267666484	0.1992701129417376	1.523678508956463	-0.2213701512856029	-0.2213701512855675	0.1168927949245184	0.2143176179805295	-0.006157669614686006	0.4670761230458364	-8.094191893097646e-08	9.422565443205402e-07	1.188718681688049e-07	3.112237075042846e-07	3.000775993983648e-07	-2.602105559731003e-07	1.11862765823133e-07
1.57	-0.4167901103962197	-0.06077344276978143	0.7930751572877779	1.032868291027092	-0.4109089477193835	-0.2976977904134275	-0.2083337338856493	0.5313736578525349	0.5313736578521314	-0.1740852884769395	-0.1343462123129902	-0.0508275808131967	-0.08467807556436883	1.053844878882856	0.4991240115818181	0.4907430943656999	-2.811286988694667	0.2579965841804632	-0.5628264313520092	0.4014175216823915	-1.620791698902676	-1.620791698902542	-0.008908428682900416	0.1588215617036843	0.0701255663769295	0.3117225437847534	-0.1758039758091941	0.008125213449165754	0.001694587924565556	-0.1463520952214686	0.08944814539958311	0.04413368567303052	0.1619524920117388	-2.901807878667289	-21.11686331750892	5.837960399789737	-6.520743266514375	-491.9107056558516	-63.8111802830563	-36.43835800560324	0.2290755631413915	0.6135467454308642	-0.8718198845636134	-0.08517005014757859	0.3467441346551601	0.1879738056779229	1.436413550858974	-0.06930471124554922	-0.0693047112230816	0.08666440364429916	0.1374773457846856	-0.006092364663207572	0.4183918635779605	-8.507892487675452e-08	9.614892618349775e-07	1.331078376150763e-07	3.087246066396088e-07	3.103229542773268e-07	-2.412271475332882e-07	1.07327920934129e-07
